<svg width="18" height="18" viewBox="0 0 18 18" fill="none" xmlns="http://www.w3.org/2000/svg">
<path d="M9.79018 0.329311C9.57953 0.118451 9.29387 0 8.99603 0C8.69819 0 8.41254 0.118451 8.20188 0.329311L0.337684 8.20435C0.231525 8.30838 0.147021 8.43247 0.0890612 8.56942C0.0311011 8.70637 0.000836018 8.85348 1.7077e-05 9.00222C-0.000801864 9.15097 0.0278417 9.2984 0.0842902 9.43598C0.140739 9.57357 0.223871 9.69858 0.328878 9.80377C0.433885 9.90897 0.558681 9.99227 0.696045 10.0489C0.833409 10.1054 0.980614 10.1342 1.12914 10.1334C1.27767 10.1327 1.42457 10.1024 1.56135 10.0444C1.69812 9.98641 1.82206 9.90183 1.92598 9.79556L2.2549 9.46556V16.875C2.2549 17.0228 2.28398 17.1691 2.34047 17.3057C2.39697 17.4422 2.47977 17.5662 2.58414 17.6707C2.68852 17.7752 2.81243 17.858 2.9488 17.9145C3.08516 17.971 3.2313 18.0001 3.37888 18H5.62562C5.92356 18 6.20929 17.8815 6.41996 17.6705C6.63064 17.4595 6.74899 17.1734 6.74899 16.875V14.625C6.74899 14.3266 6.86735 14.0405 7.07802 13.8295C7.28869 13.6185 7.57443 13.5 7.87236 13.5H10.1191C10.417 13.5 10.7028 13.6185 10.9134 13.8295C11.1241 14.0405 11.2425 14.3266 11.2425 14.625V16.875C11.2425 17.1734 11.3608 17.4595 11.5715 17.6705C11.7822 17.8815 12.0679 18 12.3658 18H14.6126C14.9105 18 15.1963 17.8815 15.4069 17.6705C15.6176 17.4595 15.736 17.1734 15.736 16.875V9.46556L16.0649 9.79496C16.1683 9.90323 16.2923 9.98972 16.4296 10.0493C16.5668 10.109 16.7146 10.1406 16.8642 10.1422C17.0138 10.1439 17.1622 10.1156 17.3008 10.059C17.4393 10.0024 17.5652 9.91872 17.671 9.81277C17.7768 9.70682 17.8604 9.58078 17.9169 9.44203C17.9733 9.30329 18.0016 9.15464 17.9999 9.00481C17.9983 8.85499 17.9667 8.707 17.9072 8.56955C17.8477 8.43209 17.7613 8.30793 17.6532 8.20435L9.79018 0.329311Z" fill="#767676"/>
</svg>
